<?xml version="1.0" standalone="no"?>
<!DOCTYPE svg PUBLIC "-//W3C//DTD SVG 20010904//EN"
 "http://www.w3.org/TR/2001/REC-SVG-20010904/DTD/svg10.dtd">
<svg version="1.0" xmlns="http://www.w3.org/2000/svg"
 width="3000.000000pt" height="3000.000000pt" viewBox="0 0 3000.000000 3000.000000"
 preserveAspectRatio="xMidYMid meet">
<metadata>
Created by potrace 1.15, written by Peter Selinger 2001-2017
</metadata>
<g transform="translate(0.000000,3000.000000) scale(0.100000,-0.100000)"
fill="#2a3b4d" stroke="none">
<path d="M3250 23925 l0 -2835 2830 0 2830 0 0 2835 0 2835 -2830 0 -2830 0 0
-2835z m4860 0 l0 -2025 -2025 0 -2025 0 0 2025 0 2025 2025 0 2025 0 0 -2025z"/>
<path d="M4860 23925 l0 -1215 1215 0 1215 0 0 1215 0 1215 -1215 0 -1215 0 0
-1215z"/>
<path d="M9730 25540 l0 -1220 405 0 405 0 0 -810 0 -810 -405 0 -405 0 0
-1620 0 -1620 -405 0 -405 0 0 405 0 405 -405 0 -405 0 0 -405 0 -405 -405 0
-405 0 0 405 0 405 -1220 0 -1220 0 0 -405 0 -405 -405 0 -405 0 0 -405 0
-405 -405 0 -405 0 0 -405 0 -405 810 0 810 0 0 810 0 810 410 0 410 0 0 -405
0 -405 405 0 405 0 0 405 0 405 405 0 405 0 0 -405 0 -405 405 0 405 0 0 -405
0 -405 405 0 405 0 0 405 0 405 405 0 405 0 0 -1215 0 -1215 -405 0 -405 0 0
405 0 405 -405 0 -405 0 0 -405 0 -405 -405 0 -405 0 0 810 0 810 -405 0 -405
0 0 -405 0 -405 -405 0 -405 0 0 -810 0 -810 -410 0 -410 0 0 810 0 810 -810
0 -810 0 0 -405 0 -405 405 0 405 0 0 -405 0 -405 405 0 405 0 0 -815 0 -815
-405 0 -405 0 0 -405 0 -405 -405 0 -405 0 0 -1620 0 -1620 405 0 405 0 0
1620 0 1620 1220 0 1220 0 0 -1215 0 -1215 -405 0 -405 0 0 810 0 810 -410 0
-410 0 0 -1215 0 -1215 1220 0 1220 0 0 405 0 405 405 0 405 0 0 -405 0 -405
810 0 810 0 0 -405 0 -405 405 0 405 0 0 -405 0 -405 405 0 405 0 0 -405 0
-405 -810 0 -810 0 0 -1220 0 -1220 405 0 405 0 0 -810 0 -810 1620 0 1620 0
0 405 0 405 405 0 405 0 0 -405 0 -405 815 0 815 0 0 810 0 810 405 0 405 0 0
-810 0 -810 405 0 405 0 0 405 0 405 405 0 405 0 0 -405 0 -405 405 0 405 0 0
405 0 405 -405 0 -405 0 0 405 0 405 810 0 810 0 0 -405 0 -405 405 0 405 0 0
405 0 405 405 0 405 0 0 410 0 410 405 0 405 0 0 -1220 0 -1220 405 0 405 0 0
405 0 405 405 0 405 0 0 -405 0 -405 410 0 410 0 0 405 0 405 405 0 405 0 0
815 0 815 -405 0 -405 0 0 810 0 810 405 0 405 0 0 810 0 810 405 0 405 0 0
405 0 405 -810 0 -810 0 0 405 0 405 810 0 810 0 0 405 0 405 -810 0 -810 0 0
-405 0 -405 -410 0 -410 0 0 -405 0 -405 -405 0 -405 0 0 810 0 810 405 0 405
0 0 810 0 810 410 0 410 0 0 -405 0 -405 810 0 810 0 0 1215 0 1215 -810 0
-810 0 0 -405 0 -405 -410 0 -410 0 0 405 0 405 -405 0 -405 0 0 -810 0 -810
-810 0 -810 0 0 -405 0 -405 -405 0 -405 0 0 405 0 405 -810 0 -810 0 0 -405
0 -405 810 0 810 0 0 -810 0 -810 -405 0 -405 0 0 405 0 405 -405 0 -405 0 0
-405 0 -405 -810 0 -810 0 0 -810 0 -810 405 0 405 0 0 -405 0 -405 -405 0
-405 0 0 -405 0 -405 -405 0 -405 0 0 405 0 405 -1220 0 -1220 0 0 -405 0
-405 -810 0 -810 0 0 -405 0 -405 1220 0 1220 0 0 405 0 405 405 0 405 0 0
-405 0 -405 405 0 405 0 0 -405 0 -405 -810 0 -810 0 0 -410 0 -410 -410 0
-410 0 0 410 0 410 -810 0 -810 0 0 -410 0 -410 405 0 405 0 0 -405 0 -405
-810 0 -810 0 0 815 0 815 -810 0 -810 0 0 405 0 405 405 0 405 0 0 405 0 405
405 0 405 0 0 405 0 405 405 0 405 0 0 1215 0 1215 -405 0 -405 0 0 -810 0
-810 -810 0 -810 0 0 405 0 405 -405 0 -405 0 0 405 0 405 -810 0 -810 0 0
405 0 405 405 0 405 0 0 405 0 405 -810 0 -810 0 0 405 0 405 810 0 810 0 0
405 0 405 405 0 405 0 0 405 0 405 405 0 405 0 0 2435 0 2435 405 0 405 0 0
405 0 405 -405 0 -405 0 0 810 0 810 405 0 405 0 0 -405 0 -405 405 0 405 0 0
-810 0 -810 1215 0 1215 0 0 405 0 405 -810 0 -810 0 0 405 0 405 405 0 405 0
0 405 0 405 -405 0 -405 0 0 -405 0 -405 -405 0 -405 0 0 810 0 810 405 0 405
0 0 405 0 405 -405 0 -405 0 0 405 0 405 405 0 405 0 0 410 0 410 810 0 810 0
0 -410 0 -410 -405 0 -405 0 0 -810 0 -810 405 0 405 0 0 -810 0 -810 410 0
410 0 0 810 0 810 405 0 405 0 0 405 0 405 810 0 810 0 0 -1215 0 -1215 405 0
405 0 0 810 0 810 405 0 405 0 0 -1215 0 -1215 405 0 405 0 0 -405 0 -405 405
0 405 0 0 -1215 0 -1215 -405 0 -405 0 0 -405 0 -405 -405 0 -405 0 0 -405 0
-405 405 0 405 0 0 -410 0 -410 -405 0 -405 0 0 -405 0 -405 405 0 405 0 0
405 0 405 405 0 405 0 0 -405 0 -405 405 0 405 0 0 405 0 405 -405 0 -405 0 0
410 0 410 405 0 405 0 0 405 0 405 -405 0 -405 0 0 405 0 405 405 0 405 0 0
405 0 405 405 0 405 0 0 -405 0 -405 810 0 810 0 0 -405 0 -405 -810 0 -810 0
0 -405 0 -405 810 0 810 0 0 405 0 405 410 0 410 0 0 -405 0 -405 810 0 810 0
0 810 0 810 -405 0 -405 0 0 405 0 405 -405 0 -405 0 0 -405 0 -405 -410 0
-410 0 0 810 0 810 410 0 410 0 0 405 0 405 405 0 405 0 0 -405 0 -405 405 0
405 0 0 810 0 810 -1220 0 -1220 0 0 -405 0 -405 -810 0 -810 0 0 405 0 405
-1215 0 -1215 0 0 1620 0 1620 -405 0 -405 0 0 405 0 405 405 0 405 0 0 410 0
410 -405 0 -405 0 0 405 0 405 405 0 405 0 0 405 0 405 -405 0 -405 0 0 -405
0 -405 -405 0 -405 0 0 405 0 405 -405 0 -405 0 0 -810 0 -810 405 0 405 0 0
-815 0 -815 -405 0 -405 0 0 405 0 405 -405 0 -405 0 0 815 0 815 -405 0 -405
0 0 -405 0 -405 -405 0 -405 0 0 810 0 810 -410 0 -410 0 0 -405 0 -405 -405
0 -405 0 0 405 0 405 -2025 0 -2025 0 0 -1220z m3240 5 l0 -405 -1215 0 -1215
0 0 405 0 405 1215 0 1215 0 0 -405z m-810 -2440 l0 -405 -405 0 -405 0 0 405
0 405 405 0 405 0 0 -405z m3250 0 l0 -405 -410 0 -410 0 0 405 0 405 410 0
410 0 0 -405z m-6490 -4050 l0 -405 -405 0 -405 0 0 405 0 405 405 0 405 0 0
-405z m0 -3240 l0 -405 -405 0 -405 0 0 405 0 405 405 0 405 0 0 -405z m0
-1630 l0 -405 -810 0 -810 0 0 -405 0 -405 -405 0 -405 0 0 405 0 405 405 0
405 0 0 405 0 405 810 0 810 0 0 -405z m17030 -810 l0 -405 -405 0 -405 0 0
405 0 405 405 0 405 0 0 -405z m-2440 -1620 l0 -405 -405 0 -405 0 0 -405 0
-405 -405 0 -405 0 0 810 0 810 810 0 810 0 0 -405z m-4050 -2430 l0 -405
-405 0 -405 0 0 405 0 405 405 0 405 0 0 -405z m3240 -810 l0 -1215 -1215 0
-1215 0 0 1215 0 1215 1215 0 1215 0 0 -1215z m2440 0 l0 -1215 -410 0 -410 0
0 405 0 405 -405 0 -405 0 0 405 0 405 405 0 405 0 0 405 0 405 410 0 410 0 0
-1215z m-5680 -1215 l0 -810 1215 0 1215 0 0 -405 0 -405 -1620 0 -1620 0 0
-410 0 -410 -810 0 -810 0 0 410 0 410 405 0 405 0 0 405 0 405 405 0 405 0 0
810 0 810 405 0 405 0 0 -810z m4050 -1215 l0 -405 -405 0 -405 0 0 405 0 405
405 0 405 0 0 -405z m1630 -1630 l0 -405 -410 0 -410 0 0 405 0 405 410 0 410
0 0 -405z"/>
<path d="M21080 8515 l0 -405 405 0 405 0 0 405 0 405 -405 0 -405 0 0 -405z"/>
<path d="M21090 23925 l0 -2835 2830 0 2830 0 0 2835 0 2835 -2830 0 -2830 0
0 -2835z m4860 0 l0 -2025 -2025 0 -2025 0 0 2025 0 2025 2025 0 2025 0 0
-2025z"/>
<path d="M22700 23925 l0 -1215 1215 0 1215 0 0 1215 0 1215 -1215 0 -1215 0
0 -1215z"/>
<path d="M16220 21485 l0 -405 405 0 405 0 0 405 0 405 -405 0 -405 0 0 -405z"/>
<path d="M17840 19865 l0 -405 405 0 405 0 0 405 0 405 -405 0 -405 0 0 -405z"/>
<path d="M19460 18245 l0 -405 405 0 405 0 0 405 0 405 -405 0 -405 0 0 -405z"/>
<path d="M11810 16990 l0 -1200 168 2 167 3 3 1027 2 1028 1028 2 1027 3 3
168 2 167 -1200 0 -1200 0 0 -1200z"/>
<path d="M15782 18023 l3 -168 1027 -3 1028 -2 2 -1028 3 -1027 168 -3 167 -2
0 1200 0 1200 -1200 0 -1200 0 2 -167z"/>
<path d="M13405 16706 c-123 -42 -185 -89 -225 -171 -19 -39 -22 -58 -18 -124
4 -67 9 -84 37 -125 51 -74 153 -130 336 -187 146 -45 195 -88 195 -171 0 -68
-40 -110 -123 -128 -59 -12 -89 -9 -168 16 -54 17 -93 65 -103 127 l-7 38 -97
-3 -97 -3 2 -45 c5 -102 64 -180 180 -239 172 -86 447 -59 555 56 94 99 90
275 -9 380 -42 45 -141 96 -264 136 -133 44 -182 69 -208 106 -42 58 -14 148
54 177 44 18 156 18 199 0 43 -18 75 -59 82 -108 l7 -39 101 3 101 3 -2 40
c-4 54 -46 137 -90 176 -21 17 -67 46 -103 63 -59 28 -75 31 -180 33 -77 2
-128 -2 -155 -11z"/>
<path d="M14370 16711 c-129 -42 -227 -139 -272 -270 -21 -60 -23 -84 -23
-256 0 -175 2 -196 24 -265 67 -204 269 -312 506 -271 84 15 134 40 196 98 55
52 99 148 99 218 l0 45 -99 0 -99 0 -12 -64 c-18 -98 -81 -146 -189 -146 -88
1 -158 53 -197 147 -21 49 -30 272 -15 388 9 77 16 97 47 141 43 64 83 84 163
84 113 0 171 -46 192 -150 l12 -60 100 0 99 0 -4 58 c-9 119 -81 220 -198 275
-60 29 -75 31 -185 34 -66 1 -131 -1 -145 -6z"/>
<path d="M15322 16683 c-6 -16 -32 -91 -58 -168 -26 -77 -73 -216 -106 -310
-32 -93 -77 -224 -99 -290 -23 -66 -52 -149 -65 -184 -13 -35 -24 -67 -24 -72
0 -5 47 -9 104 -9 l105 0 16 58 c9 31 26 83 37 115 l21 57 186 0 186 0 36
-113 37 -112 101 -3 c61 -2 101 1 101 7 0 5 -25 83 -56 173 -31 90 -68 201
-84 248 -35 106 -194 565 -209 603 l-11 27 -104 0 -104 0 -10 -27z m167 -373
c23 -74 51 -160 62 -191 10 -31 19 -59 19 -63 0 -3 -58 -6 -130 -6 -151 0
-146 -5 -106 107 13 37 41 121 61 186 20 66 41 115 45 110 4 -4 26 -69 49
-143z"/>
<path d="M16017 16703 c-4 -3 -7 -242 -7 -530 l0 -524 103 3 102 3 5 360 c5
337 6 358 21 335 24 -37 103 -169 128 -215 12 -22 37 -65 56 -95 19 -30 45
-75 59 -100 14 -25 39 -67 56 -95 17 -27 40 -68 52 -90 11 -22 32 -55 46 -73
l25 -33 96 3 96 3 0 525 0 525 -100 0 -100 0 -5 -360 -5 -359 -79 134 c-43 74
-91 154 -105 177 -14 23 -39 63 -54 90 -16 26 -65 110 -110 186 l-81 137 -96
0 c-53 0 -100 -3 -103 -7z"/>
<path d="M13130 14275 l0 -985 130 0 130 0 0 413 c0 378 -13 940 -24 1095 -8
101 2 89 74 -93 15 -38 67 -167 115 -285 48 -118 100 -246 115 -285 74 -187
241 -602 250 -620 5 -11 16 -38 24 -60 8 -22 26 -67 40 -100 l25 -60 88 -3 88
-3 37 93 c21 51 49 122 63 158 15 36 37 92 51 125 14 33 34 80 44 105 10 25
46 115 80 200 34 85 119 295 188 465 68 171 134 336 146 368 11 31 26 57 31
57 11 0 11 -28 -5 -395 -6 -126 -10 -443 -10 -702 l0 -473 130 0 130 0 -2 983
-3 982 -163 3 -163 3 -30 -66 c-16 -35 -29 -69 -29 -75 0 -6 -9 -29 -20 -53
-10 -23 -31 -73 -45 -112 -26 -70 -45 -119 -104 -267 -38 -95 -84 -212 -115
-293 -13 -33 -38 -96 -55 -140 -18 -44 -43 -108 -56 -142 -14 -35 -36 -91 -50
-125 -13 -35 -38 -99 -56 -143 -17 -44 -40 -104 -52 -133 -11 -29 -24 -51 -30
-49 -5 1 -20 30 -32 62 -23 62 -52 137 -103 265 -16 41 -53 136 -81 210 -29
74 -59 150 -67 168 -9 18 -24 56 -34 85 -10 29 -33 88 -50 132 -18 44 -43 107
-56 140 -24 62 -59 151 -114 290 -17 44 -40 103 -50 131 -10 28 -25 65 -34 82
l-17 32 -164 0 -165 0 0 -985z"/>
<path d="M15570 14275 l0 -985 650 0 651 0 -3 103 -3 102 -523 3 -522 2 2 348
3 347 450 5 450 5 3 103 3 102 -456 0 -455 0 2 318 3 317 513 3 512 2 0 105 0
105 -640 0 -640 0 0 -985z"/>
<path d="M11810 13020 l0 -1200 1200 0 1200 0 -2 168 -3 167 -1027 3 -1028 2
-2 1028 -3 1027 -167 3 -168 2 0 -1200z"/>
<path d="M17847 14213 c-4 -3 -7 -467 -7 -1030 l0 -1023 -1027 -2 -1028 -3 -3
-167 -2 -168 1200 0 1200 0 0 1200 0 1200 -163 0 c-90 0 -167 -3 -170 -7z"/>
<path d="M13780 9730 l0 -810 405 0 405 0 0 405 0 405 410 0 410 0 0 -405 0
-405 810 0 810 0 0 810 0 810 -1625 0 -1625 0 0 -810z"/>
<path d="M3250 6085 l0 -2835 2830 0 2830 0 0 2835 0 2835 -2830 0 -2830 0 0
-2835z m4860 0 l0 -2025 -2025 0 -2025 0 0 2025 0 2025 2025 0 2025 0 0 -2025z"/>
<path d="M4860 6085 l0 -1215 1215 0 1215 0 0 1215 0 1215 -1215 0 -1215 0 0
-1215z"/>
</g>
</svg>
